<?xml version="1.0" encoding="utf-8"?>
<!-- Generator: Adobe Illustrator 24.1.3, SVG Export Plug-In . SVG Version: 6.00 Build 0)  -->
<svg version="1.1" id="Layer_1" xmlns="http://www.w3.org/2000/svg" xmlns:xlink="http://www.w3.org/1999/xlink" x="0px" y="0px"
	 viewBox="0 0 32 32" style="enable-background:new 0 0 32 32;" xml:space="preserve">
<style type="text/css">
	.st0{fill:#F39200;}
	.st1{fill:#FFFFFF;}
</style>
<rect width="32" height="32"/>
<rect x="24.4" y="23.53" class="st0" width="5.94" height="5.75"/>
<g>
	<path class="st1" d="M15.41,3.02c0.27,0.42,0.19,0.78,0.08,1.14l-0.28,1.09c-0.2,0.72-0.41,1.45-0.64,2.17
		c-0.45,1.44-0.85,2.9-1.05,4.38c-0.38,2.95-0.65,5.93-0.56,8.85c0.04,1.45,0.22,2.91,0.57,4.17c0.15,0.65,0.46,1.17,0.7,1.44
		c0.06,0.03,0.11,0.11,0.15,0.12c0.04-0.02,0.05,0.02,0.08,0.02c0.03,0,0.12-0.02,0.29-0.08c0.34-0.13,0.86-0.45,1.31-0.91
		c0.46-0.45,0.86-1.02,1.22-1.62l1.07-1.85c0.18-0.31,0.37-0.61,0.58-0.9c0.19-0.3,0.32-0.65,1.13-0.5l3.2,2.4
		c0.35,0.75,0.02,1-0.25,1.29c-0.27,0.3-0.54,0.58-0.84,0.85c-0.59,0.55-1.24,1.05-1.92,1.53l-2.09,1.45
		c-0.73,0.47-1.49,0.99-2.62,1.26c-0.55,0.13-1.24,0.18-1.93-0.05c-0.34-0.11-0.63-0.31-0.92-0.49c-0.28-0.19-0.45-0.43-0.66-0.66
		c-0.22-0.23-0.29-0.46-0.44-0.69l-0.18-0.35l-0.12-0.33l-0.23-0.66l-0.14-0.63c-0.36-1.67-0.34-3.23-0.39-4.79
		c0.02-3.1,0.21-6.13,0.45-9.16c0.11-1.52,0.06-3.05,0.02-4.59c-0.02-0.77-0.04-1.54-0.02-2.3l0.05-1.14
		c0.01-0.38,0.04-0.76,0.41-1.09L15.41,3.02z"/>
</g>
<g>
	<path class="st1" d="M1.15,17.4c0.07-1.23,1.04-1.89,1.9-2.57c0.9-0.65,1.96-1.13,3.04-1.44c1.08-0.31,2.19-0.45,3.27-0.4
		c1.09,0.06,2.09,0.43,3,0.77c0.91,0.35,1.79,0.69,2.66,0.76c0.86,0.07,1.73-0.04,2.46-0.48c0.73-0.44,1.25-1.14,1.67-1.87
		l0.63-1.08c0.21-0.36,0.45-0.69,0.94-0.9l2.53,1.62c-0.03,0.61-0.34,1.07-0.74,1.46c-0.39,0.39-0.83,0.75-1.31,1.06
		c-0.96,0.61-2.07,1.01-3.14,1.26c-1.07,0.24-2.18,0.37-3.22,0.13c-1.04-0.2-1.96-0.61-2.86-0.89c-0.89-0.3-1.78-0.47-2.63-0.39
		c-0.85,0.04-1.67,0.36-2.31,0.91c-0.65,0.54-1.14,1.25-1.62,1.93c-0.53,0.66-0.78,1.5-1.82,1.85L1.15,17.4z"/>
</g>
</svg>
