<?xml version="1.0" encoding="utf-8"?>
<!-- Generator: Adobe Illustrator 24.1.3, SVG Export Plug-In . SVG Version: 6.00 Build 0)  -->
<svg version="1.1" id="Layer_1" xmlns="http://www.w3.org/2000/svg" xmlns:xlink="http://www.w3.org/1999/xlink" x="0px" y="0px"
	 viewBox="0 0 32 32" style="enable-background:new 0 0 32 32;" xml:space="preserve">
<style type="text/css">
	.st0{fill:#F39200;}
	.st1{fill:#FFFFFF;}
</style>
<path d="M16.58,32h-1.17C6.9,32,0,25.1,0,16.58v-1.17C0,6.9,6.9,0,15.42,0h1.17C25.1,0,32,6.9,32,15.42v1.17
	C32,25.1,25.1,32,16.58,32z"/>
<rect x="22.46" y="21.71" class="st0" width="4.8" height="4.65"/>
<g>
	<path class="st1" d="M15.57,5.19c0.28,0.35,0.21,0.64,0.11,0.93C15.61,6.41,15.53,6.71,15.44,7c-0.18,0.58-0.37,1.16-0.58,1.74
		c-0.41,1.16-0.77,2.33-0.96,3.52c-0.3,2.38-0.55,4.78-0.46,7.13c0.05,1.16,0.2,2.33,0.49,3.31c0.12,0.51,0.37,0.89,0.53,1.05
		c0.04,0,0.06,0.06,0.07,0.04c0.01-0.03-0.01-0.02-0.02-0.03c-0.04-0.02-0.03-0.03,0.08-0.08c0.2-0.09,0.6-0.33,0.93-0.69
		c0.34-0.36,0.64-0.83,0.9-1.33c0.26-0.5,0.5-1.03,0.78-1.53c0.14-0.25,0.28-0.5,0.44-0.74c0.16-0.24,0.24-0.53,1-0.32l3.2,2.4
		c0.39,0.7,0.11,0.89-0.11,1.13c-0.22,0.24-0.46,0.47-0.71,0.68c-0.5,0.44-1.06,0.83-1.63,1.21l-1.77,1.15
		c-0.62,0.39-1.25,0.83-2.24,1.06c-0.48,0.11-1.1,0.16-1.72-0.06c-0.3-0.1-0.57-0.27-0.83-0.44c-0.25-0.17-0.4-0.38-0.58-0.58
		c-0.19-0.21-0.25-0.4-0.38-0.6c-0.12-0.2-0.2-0.4-0.25-0.58l-0.19-0.55l-0.12-0.52c-0.29-1.39-0.27-2.66-0.29-3.93
		c0.03-2.52,0.16-4.98,0.36-7.43c0.07-1.23-0.01-2.48-0.09-3.73c-0.04-0.62-0.08-1.25-0.08-1.87c0-0.31,0.01-0.62,0.02-0.93
		c0-0.31,0.02-0.62,0.38-0.87L15.57,5.19z"/>
</g>
<g>
	<path class="st1" d="M3.44,16.59c-0.04-1.08,0.82-1.6,1.54-2.14c0.77-0.53,1.68-0.89,2.6-1.12c0.92-0.23,1.84-0.32,2.73-0.27
		c0.9,0.06,1.72,0.38,2.46,0.66c1.46,0.63,2.89,0.91,4.05,0.19c0.56-0.37,0.92-0.97,1.21-1.57l0.45-0.87
		c0.15-0.29,0.34-0.54,0.78-0.67l2.53,1.62c0.02,0.53-0.24,0.91-0.57,1.23c-0.34,0.32-0.71,0.61-1.12,0.85
		c-0.83,0.48-1.78,0.78-2.68,0.96c-0.9,0.18-1.82,0.28-2.68,0.07c-0.86-0.17-1.61-0.51-2.33-0.73c-0.72-0.24-1.43-0.36-2.09-0.28
		c-0.66,0.04-1.3,0.32-1.77,0.78c-0.48,0.46-0.83,1.05-1.18,1.61c-0.4,0.54-0.53,1.23-1.47,1.42L3.44,16.59z"/>
</g>
</svg>
