<?xml version="1.0" encoding="utf-8"?>
<!-- Generator: Adobe Illustrator 24.1.3, SVG Export Plug-In . SVG Version: 6.00 Build 0)  -->
<svg version="1.1" id="Layer_1" xmlns="http://www.w3.org/2000/svg" xmlns:xlink="http://www.w3.org/1999/xlink" x="0px" y="0px"
	 viewBox="0 0 48 48" style="enable-background:new 0 0 48 48;" xml:space="preserve">
<style type="text/css">
	.st0{fill:#F39200;stroke:#F39200;stroke-width:0.25;stroke-miterlimit:10;}
	.st1{fill:#FFFFFF;}
</style>
<path d="M32.58,47.69H15.42C6.9,47.69,0,40.79,0,32.27V15.1C0,6.59,6.9-0.31,15.42-0.31h17.17C41.1-0.31,48,6.59,48,15.1v17.17
	C48,40.79,41.1,47.69,32.58,47.69z"/>
<rect x="35.81" y="32.32" class="st0" width="8.51" height="8.24"/>
<g>
	<path class="st1" d="M23.25,3.46c0.29,0.59,0.18,1.11,0.04,1.63l-0.36,1.57c-0.26,1.04-0.54,2.08-0.82,3.13
		c-0.56,2.08-1.08,4.18-1.36,6.3c-0.52,4.24-0.91,8.52-0.78,12.73c0.04,2.09,0.28,4.2,0.78,6.07c0.24,0.92,0.64,1.79,1.07,2.24
		c0.21,0.22,0.38,0.3,0.53,0.32c0.14,0.03,0.35,0,0.65-0.1c0.59-0.2,1.38-0.7,2.06-1.34c0.69-0.66,1.31-1.45,1.87-2.3
		c0.56-0.85,1.09-1.74,1.65-2.61c0.28-0.43,0.56-0.88,0.86-1.29c0.3-0.43,0.5-0.91,1.5-0.82l3.66,2.75
		c0.33,0.95-0.11,1.32-0.48,1.74c-0.38,0.42-0.76,0.83-1.17,1.23c-0.81,0.8-1.7,1.53-2.63,2.24c-0.94,0.7-1.87,1.41-2.87,2.09
		c-1.01,0.68-2.06,1.4-3.56,1.76c-0.73,0.17-1.64,0.25-2.54-0.06c-0.9-0.28-1.62-0.89-2.09-1.49c-0.47-0.61-0.79-1.24-1.01-1.84
		c-0.23-0.61-0.4-1.19-0.53-1.78c-0.51-2.33-0.52-4.55-0.57-6.76c0-4.41,0.3-8.75,0.66-13.08c0.17-2.17,0.17-4.35,0.18-6.54
		c0.01-1.09,0.02-2.19,0.07-3.28c0.02-0.54,0.07-1.09,0.11-1.63c0.03-0.54,0.08-1.09,0.53-1.57L23.25,3.46z"/>
</g>
<g>
	<path class="st1" d="M3.52,24.23c0.16-1.71,1.49-2.68,2.72-3.64c1.27-0.94,2.76-1.64,4.29-2.09c1.53-0.46,3.1-0.66,4.63-0.59
		c1.55,0.08,2.97,0.59,4.28,1.08c1.31,0.5,2.57,0.99,3.83,1.1c1.24,0.14,2.49-0.07,3.56-0.67c1.06-0.62,1.84-1.61,2.47-2.65
		c0.33-0.51,0.63-1.03,0.94-1.55c0.31-0.52,0.66-1,1.34-1.31l3.36,2.15c-0.07,0.85-0.51,1.5-1.06,2.06
		c-0.55,0.56-1.17,1.07-1.84,1.51c-1.35,0.88-2.91,1.47-4.42,1.84c-0.77,0.17-1.53,0.31-2.3,0.36c-0.77,0.03-1.54-0.01-2.28-0.16
		c-1.49-0.27-2.8-0.86-4.09-1.27c-1.28-0.43-2.56-0.69-3.79-0.58c-1.23,0.05-2.41,0.5-3.36,1.27c-0.95,0.76-1.69,1.76-2.4,2.74
		c-0.76,0.96-1.18,2.14-2.61,2.68L3.52,24.23z"/>
</g>
</svg>
